<!-- Generator: Adobe Illustrator 17.0.0, SVG Export Plug-In  -->
<svg version="1.1"
	 xmlns="http://www.w3.org/2000/svg" xmlns:xlink="http://www.w3.org/1999/xlink" xmlns:a="http://ns.adobe.com/AdobeSVGViewerExtensions/3.0/"
	 x="0px" y="0px" width="244.759px" height="34.96px" viewBox="0 0 244.759 34.96" enable-background="new 0 0 244.759 34.96"
	 xml:space="preserve">
<defs>
</defs>
<g>
	<path fill="#017DC6" d="M0,27.001c0-2.669,0.836-4.639,2.51-5.908c1.672-1.27,3.61-1.904,5.813-1.904
		c3.456,0,5.947,0.952,7.473,2.856v-2.226c0-0.999-0.431-1.801-1.29-2.407c-0.86-0.606-2.053-0.909-3.578-0.909
		c-2.475,0-4.729,0.754-6.764,2.263l-2.866-5.172c2.932-2.667,6.588-4,10.969-4c1.525,0,2.929,0.159,4.21,0.476
		c1.282,0.317,2.463,0.826,3.541,1.526c1.079,0.7,1.927,1.701,2.544,3.003c0.616,1.302,0.925,2.856,0.925,4.663V34.35h-7.69v-2.393
		c-0.763,0.896-1.817,1.62-3.164,2.173c-1.348,0.553-2.783,0.83-4.309,0.83c-2.105,0-4.019-0.7-5.74-2.1
		C0.86,31.461,0,29.508,0,27.001z M8.798,25.023c-0.738,0.488-1.107,1.18-1.107,2.075c0,0.896,0.373,1.587,1.119,2.075
		c0.747,0.488,1.647,0.732,2.702,0.732c2.061,0,3.489-0.586,4.284-1.758V26c-0.795-1.139-2.224-1.709-4.284-1.709
		C10.44,24.291,9.536,24.535,8.798,25.023z"/>
	<path fill="#017DC6" d="M25.16,17.113v-6.909h4.028V3.856h7.69v6.348h4.907v6.909h-4.907v8.575c0,0.677,0.191,1.24,0.573,1.689
		c0.383,0.449,0.892,0.673,1.526,0.673c0.96,0,1.611-0.197,1.953-0.59l1.489,5.865c-1.14,1.09-3.044,1.635-5.713,1.635
		c-2.466,0-4.336-0.594-5.609-1.78c-1.273-1.187-1.91-2.926-1.91-5.219V17.113H25.16z"/>
	<path fill="#017DC6" d="M43.532,22.24c0-3.564,1.2-6.563,3.601-8.997c2.401-2.433,5.465-3.65,9.192-3.65
		c3.629,0,6.596,1.225,8.899,3.674c2.303,2.45,3.454,5.709,3.454,9.778v1.758H51.491c0.293,1.172,0.956,2.124,1.989,2.856
		c1.034,0.732,2.389,1.099,4.065,1.099c0.928,0,1.974-0.191,3.138-0.574c1.163-0.382,2.078-0.875,2.746-1.477l3.369,5.054
		c-1.172,1.025-2.665,1.815-4.48,2.368c-1.814,0.553-3.69,0.83-5.627,0.83c-3.793,0-6.934-1.16-9.424-3.479
		S43.532,26.082,43.532,22.24z M51.394,19.555h9.937c-0.131-0.993-0.595-1.868-1.392-2.625c-0.798-0.757-2.002-1.135-3.613-1.135
		c-1.53,0-2.694,0.371-3.491,1.111C52.036,17.646,51.556,18.529,51.394,19.555z"/>
	<path fill="#017DC6" d="M74.229,31.361c-2.537-2.399-3.805-5.435-3.805-9.108s1.265-6.701,3.793-9.084
		c2.528-2.383,5.699-3.575,9.513-3.575c2.393,0,4.432,0.442,6.115,1.325c1.686,0.884,2.942,1.953,3.772,3.207l-4.98,4.634
		c-1.025-1.504-2.548-2.257-4.565-2.257c-1.628,0-2.975,0.517-4.041,1.549c-1.065,1.032-1.599,2.433-1.599,4.201
		s0.533,3.177,1.599,4.226c1.066,1.048,2.413,1.572,4.041,1.572c-0.342,6.909,0,0-0.342,6.909
		C79.934,34.96,76.767,33.761,74.229,31.361z"/>
	<path fill="#017DC6" d="M95.536,34.35V1h7.69v12.209c2.031-2.394,4.811-3.599,8.337-3.616c2.665,0,4.664,0.676,5.997,2.026
		c1.333,1.351,1.999,3.19,1.999,5.518V34.35h-7.69V20.388c0-2.59-1.327-3.885-3.979-3.885c-1.84,0-3.394,0.777-4.663,2.331V34.35
		H95.536z"/>
</g>
<g>
	<path d="M125.808,33.35V9.204h2.588v3.638c0.602-0.96,1.664-1.908,3.186-2.844c1.522-0.936,3.064-1.404,4.627-1.404
		c1.762,0,3.168,0.436,4.219,1.306c1.05,0.871,1.745,1.958,2.085,3.259c0.732-1.204,1.85-2.266,3.349-3.186
		c1.5-0.919,3.057-1.379,4.67-1.379c4.384,0,6.576,2.45,6.576,7.349V33.35h-2.588V16.455c0-3.662-1.615-5.501-4.844-5.518
		c-1.272,0-2.569,0.403-3.891,1.208c-1.32,0.806-2.332,1.77-3.033,2.893V33.35h-2.588V16.455c0-3.662-1.604-5.501-4.81-5.518
		c-1.27,0-2.556,0.411-3.857,1.233c-1.303,0.822-2.336,1.794-3.101,2.917V33.35H125.808z"/>
	<path d="M162.644,21.24c0-3.532,1.095-6.522,3.285-8.972c2.19-2.449,4.948-3.674,8.274-3.674c3.514,0,6.282,1.217,8.306,3.65
		c2.023,2.434,3.035,5.489,3.035,9.167v0.684h-20.166c0.131,2.714,1.047,4.979,2.75,6.796c1.703,1.817,3.94,2.726,6.711,2.726
		c3.211,0,5.852-1.106,7.922-3.319l1.312,1.696c-2.502,2.645-5.645,3.967-9.429,3.967c-3.521,0-6.402-1.184-8.642-3.552
		S162.644,24.984,162.644,21.24z M165.378,20.044h17.578c-0.033-2.303-0.807-4.396-2.323-6.28c-1.516-1.884-3.675-2.826-6.479-2.826
		c-2.64,0-4.738,0.934-6.295,2.802C166.303,15.607,165.476,17.709,165.378,20.044z"/>
	<path d="M189.738,21.301c0-3.795,0.989-6.863,2.966-9.201c1.979-2.337,4.569-3.507,7.776-3.507c1.692,0,3.275,0.403,4.749,1.209
		c1.473,0.806,2.688,1.91,3.649,3.31V0h2.588v33.35h-2.588v-3.835c-0.896,1.295-2.087,2.361-3.577,3.195
		c-1.488,0.833-3.097,1.251-4.821,1.251c-3.239,0-5.839-1.15-7.8-3.451C190.719,28.208,189.738,25.139,189.738,21.301z
		 M194.743,13.871c-1.514,1.956-2.271,4.437-2.271,7.443c0,3.007,0.757,5.475,2.271,7.406s3.572,2.896,6.177,2.896
		c1.627,0,3.178-0.416,4.651-1.247c1.473-0.831,2.575-1.85,3.308-3.055V15.362c-0.732-1.238-1.831-2.286-3.296-3.141
		c-1.465-0.855-3.02-1.283-4.663-1.283C198.315,10.938,196.257,11.915,194.743,13.871z"/>
	<path d="M217.262,4.797c-0.399-0.398-0.599-0.867-0.599-1.404s0.199-0.997,0.599-1.379c0.398-0.382,0.866-0.574,1.403-0.574
		c0.569,0,1.046,0.191,1.429,0.574c0.382,0.383,0.573,0.842,0.573,1.379c0,0.57-0.191,1.046-0.573,1.428
		c-0.383,0.383-0.859,0.574-1.429,0.574C218.128,5.396,217.66,5.196,217.262,4.797z M217.371,33.35V9.204h2.588V33.35H217.371z"/>
	<path d="M225.521,25.903c0-2.506,0.838-4.468,2.515-5.884c1.676-1.416,3.653-2.124,5.933-2.124c3.401,0,6.136,1.147,8.203,3.442
		v-4.86c0-1.717-0.61-3.07-1.831-4.058s-2.768-1.482-4.639-1.482c-2.995,0-5.526,1.18-7.593,3.54l-1.44-1.794
		c2.506-2.726,5.606-4.089,9.302-4.089c2.604,0,4.72,0.651,6.348,1.953c1.627,1.302,2.441,3.239,2.441,5.811V33.35h-2.588v-2.856
		c-2.1,2.295-4.834,3.45-8.203,3.467c-2.23,0-4.195-0.728-5.896-2.185C226.371,30.318,225.521,28.361,225.521,25.903z
		 M230.086,21.643c-1.221,1.131-1.831,2.563-1.831,4.297s0.61,3.162,1.831,4.285s2.815,1.685,4.785,1.685
		c3.174,0,5.606-1.106,7.3-3.32v-5.298c-1.693-2.229-4.126-3.345-7.3-3.345C232.901,19.946,231.307,20.512,230.086,21.643z"/>
</g>
<circle fill="#017DC6" cx="84.505" cy="22.35" r="3.458"/>
</svg>
