<!-- Generator: Adobe Illustrator 17.0.0, SVG Export Plug-In  -->
<svg version="1.1"
	 xmlns="http://www.w3.org/2000/svg" xmlns:xlink="http://www.w3.org/1999/xlink" xmlns:a="http://ns.adobe.com/AdobeSVGViewerExtensions/3.0/"
	 x="0px" y="0px" width="401.824px" height="147.177px" viewBox="0 0 401.824 147.177" enable-background="new 0 0 401.824 147.177"
	 xml:space="preserve">
<defs>
</defs>
<g>
	<defs>
		<path id="SVGID_1_" d="M289.617,54.702l-33.001,85.747h-24.48l-24.048-71.424H229.4l9.216,33.696
			c1.872,7.056,3.744,14.544,5.616,22.032h0.576c1.728-7.488,16.547-46.25,18.419-53.306l8.709-23.532L289.617,54.702
			L289.617,54.702z M292.49,47.236l5.787-15.037l12.763,5L298.277,5l-32.801,15.521l14.497,5.678l-5.26,14.213L292.49,47.236
			L292.49,47.236z M5,104.737c0,23.328,11.52,37.44,29.232,37.44c6.912,0,13.968-3.744,19.008-8.784h0.576l1.44,7.056h17.28V39.505
			H51.368v24.336l0.864,10.944c-4.896-4.608-9.648-7.488-17.568-7.488C19.544,67.297,5,81.409,5,104.737
			C5,104.737,5,81.409,5,104.737L5,104.737z M26.744,104.449c0-13.536,6.048-19.872,12.816-19.872c3.888,0,8.064,1.152,11.808,4.608
			v29.232c-3.456,4.752-7.056,6.48-11.664,6.48C31.496,124.897,26.744,118.561,26.744,104.449
			C26.744,104.449,26.744,118.561,26.744,104.449L26.744,104.449z M79.28,104.737c0,23.616,15.696,37.44,36.144,37.44
			c8.496,0,18-3.024,25.344-8.064l-7.056-12.816c-5.184,3.168-10.08,4.752-15.408,4.752c-9.504,0-16.704-4.752-18.576-15.552h42.768
			c0.432-1.728,0.864-5.184,0.864-8.928c0-19.44-10.08-34.272-30.384-34.272C95.84,67.297,79.28,81.553,79.28,104.737
			C79.28,104.737,79.28,81.553,79.28,104.737L79.28,104.737z M99.584,97.393c1.44-9.504,7.2-13.968,13.824-13.968
			c8.496,0,11.952,5.76,11.952,13.968c0,0,0-8.208,0,0H99.584L99.584,97.393z M150.248,118.273c0,14.4,4.896,23.904,19.44,23.904
			c4.752,0,8.352-0.72,10.656-1.728l-2.592-15.696c-1.152,0.288-1.728,0.288-2.592,0.288c-1.728,0-3.744-1.44-3.744-5.904V39.505
			h-21.168V118.273L150.248,118.273z M183.632,140.449H204.8V69.025h-21.168V140.449L183.632,140.449z M277.76,104.737
			c0,23.616,15.696,37.44,36.144,37.44c8.496,0,18-3.024,25.344-8.064l-7.056-12.816c-5.184,3.168-10.08,4.752-15.408,4.752
			c-9.504,0-16.704-4.752-18.576-15.552h42.768c0.432-1.728,0.864-5.184,0.864-8.928c0-19.44-10.08-34.272-30.384-34.272
			C294.32,67.297,277.76,81.553,277.76,104.737C277.76,104.737,277.76,81.553,277.76,104.737L277.76,104.737z M298.064,97.393
			c1.44-9.504,7.2-13.968,13.824-13.968c8.496,0,11.952,5.76,11.952,13.968c0,0,0-8.208,0,0H298.064L298.064,97.393z
			 M348.728,140.449h21.168V98.977c3.744-9.648,10.368-13.104,15.696-13.104c3.024,0,5.184,0.432,7.776,1.152l3.456-18.288
			c-2.016-0.864-4.464-1.44-8.496-1.44c-7.344,0-15.12,4.608-20.304,14.256h-0.576l-1.44-12.528h-17.28V140.449L348.728,140.449z
			 M206.384,47.425c0-6.48-5.04-10.944-12.24-10.944c-7.056,0-12.24,4.464-12.24,10.944c0,6.48,5.184,11.088,12.24,11.088
			C201.344,58.513,206.384,53.905,206.384,47.425L206.384,47.425z M206.384,47.425"/>
	</defs>
	<clipPath id="SVGID_2_">
		<use xlink:href="#SVGID_1_"  overflow="visible"/>
	</clipPath>
	<path clip-path="url(#SVGID_2_)" fill-rule="evenodd" clip-rule="evenodd" d="M0,0h401.824v147.177H0V0z M0,0"/>
	<rect x="4.384" y="4.449" clip-path="url(#SVGID_2_)" fill="none" width="393" height="138"/>
</g>
</svg>
