<!-- Generator: Adobe Illustrator 17.0.0, SVG Export Plug-In  -->
<svg version="1.1"
	 xmlns="http://www.w3.org/2000/svg" xmlns:xlink="http://www.w3.org/1999/xlink" xmlns:a="http://ns.adobe.com/AdobeSVGViewerExtensions/3.0/"
	 x="0px" y="0px" width="946.28px" height="204.429px" viewBox="0 0 946.28 204.429" enable-background="new 0 0 946.28 204.429"
	 xml:space="preserve">
<defs>
</defs>
<g>
	<g>
		<defs>
			<path id="SVGID_1_" d="M16.073,70.188L5.019,50L83.914,5.047l1.802,36.669c0,0,0.513-0.275-0.535,0.329
				C60.141,56.471,33.54,71.775,33.54,71.775L16.073,70.188L16.073,70.188z M16.073,70.188"/>
		</defs>
		<clipPath id="SVGID_2_">
			<use xlink:href="#SVGID_1_"  overflow="visible"/>
		</clipPath>
		<path clip-path="url(#SVGID_2_)" fill-rule="evenodd" clip-rule="evenodd" fill="#7C72A0" d="M0.019,0.047h90.822v76.728H0.019
			V0.047z M0.019,0.047"/>
	</g>
	<g>
		<defs>
			<path id="SVGID_3_" d="M37.992,69.236l-0.089,53.482l-18.168,14.934L5,141.045V50.031L37.992,69.236L37.992,69.236z
				 M37.992,69.236"/>
		</defs>
		<clipPath id="SVGID_4_">
			<use xlink:href="#SVGID_3_"  overflow="visible"/>
		</clipPath>
		<path clip-path="url(#SVGID_4_)" fill-rule="evenodd" clip-rule="evenodd" fill="#49BCD6" d="M0,45.031h42.992v101.014H0V45.031z
			 M0,45.031"/>
	</g>
	<g>
		<defs>
			<path id="SVGID_5_" d="M84.029,149.688L98,154.531l-13.891,32.494L5,141.066l32.887-19.035L84.029,149.688L84.029,149.688z
				 M84.029,149.688"/>
		</defs>
		<clipPath id="SVGID_6_">
			<use xlink:href="#SVGID_5_"  overflow="visible"/>
		</clipPath>
		<path clip-path="url(#SVGID_6_)" fill-rule="evenodd" clip-rule="evenodd" fill="#78CC63" d="M0,117.031h103v74.994H0V117.031z
			 M0,117.031"/>
	</g>
	<g>
		<defs>
			<path id="SVGID_7_" d="M132.027,122.033l15.834-12.003l15.137,32.017L84,187.031v-37.326L132.027,122.033L132.027,122.033z
				 M132.027,122.033"/>
		</defs>
		<clipPath id="SVGID_8_">
			<use xlink:href="#SVGID_7_"  overflow="visible"/>
		</clipPath>
		<path clip-path="url(#SVGID_8_)" fill-rule="evenodd" clip-rule="evenodd" fill="#488F5B" d="M79,105.031h88.998v87H79V105.031z
			 M79,105.031"/>
	</g>
	<g>
		<defs>
			<path id="SVGID_9_" d="M130.206,69.399l-11.05-10.207L163,50.577v91.453l-32.794-18.958V69.399L130.206,69.399z M130.206,69.399"
				/>
		</defs>
		<clipPath id="SVGID_10_">
			<use xlink:href="#SVGID_9_"  overflow="visible"/>
		</clipPath>
		<path clip-path="url(#SVGID_10_)" fill-rule="evenodd" clip-rule="evenodd" fill="#798098" d="M114.155,45.577H168v101.453
			h-53.845V45.577z M114.155,45.577"/>
	</g>
	<g>
		<defs>
			<path id="SVGID_11_" d="M84.258,5.205L83.93,5.016L70,14.297l4.216,18.669l9.253,9.336c0.148,0.15,0.296,0.299,0.296,0.299
				c23.317,13.789,46.487,27.429,46.487,27.429L163,50.593L84.258,5.205L84.258,5.205z M84.258,5.205"/>
		</defs>
		<clipPath id="SVGID_12_">
			<use xlink:href="#SVGID_11_"  overflow="visible"/>
		</clipPath>
		<path clip-path="url(#SVGID_12_)" fill-rule="evenodd" clip-rule="evenodd" fill="#4B5192" d="M65,0.016h103v75.015H65V0.016z
			 M65,0.016"/>
	</g>
	<g>
		<defs>
			<path id="SVGID_13_" d="M83.961,5c0,0,0.079,37.805,0,37.749c-0.008-0.006-10.653-5.083-10.653-5.083l-4.75-23.125L83.961,5
				L83.961,5z M83.961,5"/>
		</defs>
		<clipPath id="SVGID_14_">
			<use xlink:href="#SVGID_13_"  overflow="visible"/>
		</clipPath>
		<path clip-path="url(#SVGID_14_)" fill-rule="evenodd" clip-rule="evenodd" fill="#7C72A0" d="M63.559,0h25.438v47.749H63.559V0z
			 M63.559,0"/>
	</g>
	<g>
		<defs>
			<path id="SVGID_15_" d="M481.7,54.887v22.741h-23.2v45c0,8.8,3.6,9.6,6.4,9.6c3.8,0,9.2-2.8,11.8-4.2l10.6,24
				c-6.6,3.2-18.4,8.8-31,8.8c-20.2,0-29-12-29-37v-46.2h-11.6v-24h11.6v-25l31.2-5.4v30.4h23h33l16,66l16-66h33.2l-46.6,145.8
				h-33.4l15.6-38.8L481.7,54.887L481.7,54.887L481.7,54.887z M209.3,53.629v105h31.2v-69.4c3.8-4.8,11.4-12.4,18.6-12.4
				c6.8,0,8.6,6,8.6,13.6v68.2h31.2v-75.2c0-19.8-8.2-32-26-32c-13.6,0-24.2,7.4-32.4,14.2v-12H209.3L209.3,53.629z M341.1,158.629
				v-105h-31.2v105H341.1L341.1,158.629z M346.7,77.629h11.6v81h31.2v-81h20v-24h-20v-3.8c0-8,3.6-8.8,6.2-8.8
				c3.4,0,10.2,2.4,13.2,3.6l10.4-23c-6.8-3.4-19.8-8.8-32.6-8.8c-19.8,0-28.4,12.4-28.4,38.4v2.4h-11.6V77.629L346.7,77.629z
				 M481.7,54.887v-1.259h-0.2h-0.2L481.7,54.887L481.7,54.887L481.7,54.887z M662.7,158.629h8.8l27.2-105h-9l-22.6,93.6l-22.8-93.6
				h-8.8l-23.2,93.2l-22.6-93.2h-8.8l27.2,105h8.8l22.8-92L662.7,158.629L662.7,158.629z M768.5,158.629h8.2v-77.4
				c0-21.6-11.2-29.8-27.2-29.8c-11,0-23,4-36.4,10l3.8,7.2c11.2-4.8,22-9.6,32.4-9.6c14.8,0,19.2,8.4,19.2,24v16.4
				c-7.6-2-22-6.2-31.8-6.2c-14.8,0-29.4,9.6-29.4,34.6c0,26,15.6,33,28.2,33c15,0,26.4-10,33-17.4c0,0-6.6,7.4,0,0V158.629
				L768.5,158.629z M736.5,152.629c-11.8,0-20.6-6.8-20.6-24.6c0-13.8,5.6-27,24-27c9.8,0,22.6,3.8,28.6,5.2v28.2
				C760.1,144.429,750.1,152.629,736.5,152.629L736.5,152.629z M808.3,53.629h-8.2v105h8.2v-65.2c0,0,3.4-32.8,32.8-32.8v-8.2
				c-23-2-31.8,21.4-32.8,24c0,0,1-2.6,0,0V53.629L808.3,53.629z M917.1,109.029c0,0,1-5.6,1-12.8c0-25.8-12-44.8-34.4-44.8
				c-21.8,0-38.4,18.8-38.4,54.6s16.6,54.8,36.2,54.8c15.6,0,29.4-10.8,37-16.4l-5.2-6c-6.6,5-19.2,14.8-31.8,14.8
				c-15.6,0-26.6-17.6-27.4-44.2c0,0,0.8,26.6,0,0H917.1L917.1,109.029z M883.5,59.029c16,0,26.6,12.4,26,42.6h-55.4
				C855.3,75.829,866.1,59.029,883.5,59.029C883.5,59.029,866.1,59.029,883.5,59.029L883.5,59.029z M883.5,59.029"/>
		</defs>
		<clipPath id="SVGID_16_">
			<use xlink:href="#SVGID_15_"  overflow="visible"/>
		</clipPath>
		<path clip-path="url(#SVGID_16_)" fill-rule="evenodd" clip-rule="evenodd" d="M204.3,7.829h719.2v196.6H204.3V7.829z
			 M204.3,7.829"/>
	</g>
	<g>
		<defs>
			<path id="SVGID_17_" d="M325.5,46.031c7.456,0,13.5-6.044,13.5-13.5s-6.044-13.5-13.5-13.5c-7.456,0-13.5,6.044-13.5,13.5
				S318.044,46.031,325.5,46.031L325.5,46.031z M325.5,46.031"/>
		</defs>
		<clipPath id="SVGID_18_">
			<use xlink:href="#SVGID_17_"  overflow="visible"/>
		</clipPath>
		<path clip-path="url(#SVGID_18_)" fill-rule="evenodd" clip-rule="evenodd" d="M307,14.031h37v37h-37V14.031z M307,14.031"/>
	</g>
	<g>
		<defs>
			<path id="SVGID_19_" d="M939.072,65.183h2.208V54.431h-2.304l-3.024,6.48l-2.976-6.48h-2.304v10.752h2.208v-6.912l2.4,5.136
				h1.344l2.448-5.232V65.183L939.072,65.183z M929.328,56.447v-2.016h-8.448v2.016H924v8.736h2.208v-8.736H929.328L929.328,56.447z
				 M929.328,56.447"/>
		</defs>
		<clipPath id="SVGID_20_">
			<use xlink:href="#SVGID_19_"  overflow="visible"/>
		</clipPath>
		<path clip-path="url(#SVGID_20_)" fill-rule="evenodd" clip-rule="evenodd" d="M915.88,49.431h30.4v20.752h-30.4V49.431z
			 M915.88,49.431"/>
	</g>
</g>
</svg>
