<!-- Generator: Adobe Illustrator 17.0.2, SVG Export Plug-In  -->
<svg version="1.1"
	 xmlns="http://www.w3.org/2000/svg" xmlns:xlink="http://www.w3.org/1999/xlink" xmlns:a="http://ns.adobe.com/AdobeSVGViewerExtensions/3.0/"
	 x="0px" y="0px" width="933.164px" height="207.978px" viewBox="0 0 933.164 207.978" enable-background="new 0 0 933.164 207.978"
	 xml:space="preserve">
<defs>
</defs>
<g>
	<g>
		<path fill="#333333" d="M0,11.779l35.827-1.747L82.42,121.918L118.012,6.024l35.827-1.747l-49.874,151.088l-39.627,1.933L0,11.779
			z"/>
		<path fill="#333333" d="M146.095,145.239L182.352,0l28.764,7.181L174.859,152.42L146.095,145.239z"/>
		<path fill="#333333" d="M197.345,152.798L261.288,7.106l39.632,1.825l50.285,150.951l-35.832-1.65l-8.183-25.512l-63.52-2.924
			l-10.493,24.652L197.345,152.798z M253.527,102.394l46.256,2.13l-20.188-64.911L253.527,102.394z"/>
		<path fill="#333333" d="M364.313,163.039L349.194,15.332l58.376-5.975c23.248-2.38,42.841,2.481,58.781,14.58
			c15.939,12.1,25.035,29.143,27.286,51.129c2.28,22.275-3.128,40.912-16.22,55.91c-13.093,14.998-31.263,23.687-54.512,26.067
			L364.313,163.039z M392.946,132.137l26.817-2.745c14.2-1.454,25.011-7.04,32.43-16.759s10.456-21.138,9.113-34.258
			c-1.372-13.408-6.521-24.026-15.443-31.854c-8.924-7.828-20.703-10.993-35.335-9.495l-27.033,2.767L392.946,132.137z"/>
		<path fill="#333333" d="M511.032,88.553l11.043-88.335l31.386,3.924l-10.954,87.626c-1.324,10.589,0.644,19.412,5.906,26.471
			c5.262,7.06,13.419,11.28,24.474,12.662c11.054,1.382,19.963-0.705,26.729-6.261c6.766-5.555,10.811-13.627,12.135-24.215
			l10.954-87.626l32.249,4.032l-11.043,88.335c-2.355,18.84-9.894,33.124-22.612,42.852c-12.72,9.73-29.989,13.23-51.81,10.502
			c-21.821-2.728-37.608-10.36-47.361-22.9C512.376,123.081,508.676,107.392,511.032,88.553z"/>
		<path fill="#333333" d="M662.034,91.071c-2.839-22.486,2.306-41.747,15.437-57.785c13.13-16.036,30.983-25.48,53.558-28.33
			c27.534-3.477,49.494,5.855,65.875,27.993l-25.276,16.742c-4.02-5.809-9.413-10.343-16.179-13.601
			c-6.766-3.258-13.745-4.434-20.934-3.527c-13.372,1.688-23.867,7.66-31.483,17.911c-7.617,10.254-10.534,22.429-8.754,36.526
			c1.78,14.096,7.617,25.185,17.512,33.264c9.894,8.078,21.562,11.268,35.007,9.57c7.188-0.908,13.654-3.798,19.393-8.674
			c5.739-4.873,9.834-10.624,12.284-17.25l28.617,9.717c-10.624,25.769-29.561,40.373-56.808,43.813
			c-22.503,2.841-42.131-1.917-58.883-14.273C674.647,130.812,664.859,113.446,662.034,91.071z"/>
		<path fill="#333333" d="M811.913,28.22l3.739-27.574l117.512,15.935l-3.739,27.574l-42.976-5.828l-16.212,119.559l-31.344-4.25
			l16.212-119.559L811.913,28.22z"/>
	</g>
	<g>
		<path fill="#333333" d="M899.599,49.717l0.31-2.481l10.572,1.32l-0.31,2.481l-3.866-0.483l-1.343,10.756l-2.82-0.352l1.343-10.756
			L899.599,49.717z"/>
		<path fill="#333333" d="M910.621,62.017l1.653-13.237l3.954,0.494l2.174,8.676l4.25-7.874l3.954,0.494l-1.653,13.237l-2.82-0.352
			l1.192-9.545l-4.923,9.079l-1.231-0.154l-2.539-10.011l-1.192,9.545L910.621,62.017z"/>
	</g>
	<g>
		<path fill="#333333" d="M342.709,207.563l8.732-22.678h6.06l8.732,22.678h-5.479l-1.428-3.835h-9.712l-1.428,3.835H342.709z
			 M350.927,199.478h7.072l-3.536-9.762L350.927,199.478z"/>
		<path fill="#333333" d="M368.325,207.563v-22.678h10.627c2.384,0,4.252,0.697,5.605,2.092c1.352,1.395,2.029,3.133,2.029,5.213
			c0,2.059-0.683,3.788-2.047,5.188s-3.229,2.1-5.592,2.1h-5.792v8.085H368.325z M373.156,195.228h5.097
			c0.974,0,1.779-0.279,2.416-0.838c0.636-0.559,0.955-1.292,0.955-2.2c0-0.93-0.318-1.671-0.955-2.225
			c-0.637-0.553-1.442-0.83-2.416-0.83h-5.097V195.228z"/>
		<path fill="#333333" d="M389.575,207.563v-22.678h10.628c2.383,0,4.252,0.697,5.604,2.092c1.354,1.395,2.029,3.133,2.029,5.213
			c0,2.059-0.682,3.788-2.047,5.188s-3.229,2.1-5.592,2.1h-5.791v8.085H389.575z M394.407,195.228h5.096
			c0.975,0,1.779-0.279,2.416-0.838s0.955-1.292,0.955-2.2c0-0.93-0.318-1.671-0.955-2.225c-0.637-0.553-1.441-0.83-2.416-0.83
			h-5.096V195.228z"/>
		<path fill="#333333" d="M410.626,207.563v-22.678h4.831v18.428h9.612v4.25H410.626z"/>
		<path fill="#333333" d="M428.324,207.563v-22.678h4.831v22.678H428.324z"/>
		<path fill="#333333" d="M436.557,196.233c0-3.462,1.148-6.282,3.445-8.461c2.296-2.179,5.182-3.269,8.657-3.269
			c4.239,0,7.388,1.834,9.446,5.502l-4.15,2.054c-0.498-0.957-1.229-1.747-2.191-2.37s-1.998-0.936-3.104-0.936
			c-2.059,0-3.763,0.704-5.113,2.112s-2.025,3.197-2.025,5.367s0.673,3.962,2.017,5.375c1.346,1.414,3.053,2.12,5.122,2.12
			c1.106,0,2.142-0.314,3.104-0.943c0.963-0.628,1.693-1.421,2.191-2.379l4.15,2.021c-2.103,3.701-5.252,5.552-9.446,5.552
			c-3.464,0-6.348-1.097-8.649-3.289C437.708,202.496,436.557,199.678,436.557,196.233z"/>
		<path fill="#333333" d="M458.372,207.563l8.732-22.678h6.06l8.732,22.678h-5.479l-1.428-3.835h-9.711l-1.428,3.835H458.372z
			 M466.589,199.478h7.072l-3.536-9.762L466.589,199.478z"/>
		<path fill="#333333" d="M480.402,189.136v-4.25h18.112v4.25h-6.624v18.428h-4.831v-18.428H480.402z"/>
		<path fill="#333333" d="M501.585,207.563v-22.678h4.831v22.678H501.585z"/>
		<path fill="#333333" d="M513.166,204.685c-2.23-2.196-3.346-5.014-3.346-8.452c0-3.439,1.115-6.254,3.346-8.444
			c2.229-2.189,5.065-3.285,8.508-3.285c3.42,0,6.248,1.101,8.483,3.302s3.354,5.011,3.354,8.428s-1.118,6.229-3.354,8.436
			s-5.064,3.31-8.483,3.31C518.231,207.978,515.396,206.881,513.166,204.685z M516.668,190.866
			c-1.256,1.408-1.884,3.197-1.884,5.367s0.634,3.962,1.901,5.375c1.267,1.414,2.933,2.12,4.996,2.12c2.064,0,3.725-0.706,4.98-2.12
			c1.257-1.413,1.885-3.205,1.885-5.375s-0.628-3.959-1.885-5.367c-1.256-1.408-2.919-2.112-4.988-2.112
			C519.593,188.754,517.925,189.458,516.668,190.866z"/>
		<path fill="#333333" d="M536.897,207.563v-22.678h4.964l10.509,14.244v-14.244h4.831v22.678h-4.665l-10.808-14.792v14.792H536.897
			z"/>
		<path fill="#333333" d="M570.399,207.563v-22.678h4.831v8.882h10.708v-8.882h4.831v22.678h-4.831v-9.546H575.23v9.546H570.399z"/>
		<path fill="#333333" d="M597.518,204.685c-2.23-2.196-3.346-5.014-3.346-8.452c0-3.439,1.115-6.254,3.346-8.444
			c2.229-2.189,5.065-3.285,8.508-3.285c3.42,0,6.248,1.101,8.483,3.302s3.354,5.011,3.354,8.428s-1.118,6.229-3.354,8.436
			s-5.063,3.31-8.483,3.31C602.583,207.978,599.747,206.881,597.518,204.685z M601.02,190.866c-1.256,1.408-1.884,3.197-1.884,5.367
			s0.634,3.962,1.901,5.375c1.267,1.414,2.933,2.12,4.996,2.12c2.064,0,3.725-0.706,4.98-2.12c1.257-1.413,1.885-3.205,1.885-5.375
			s-0.628-3.959-1.885-5.367c-1.256-1.408-2.919-2.112-4.988-2.112C603.944,188.754,602.276,189.458,601.02,190.866z"/>
		<path fill="#333333" d="M619.688,204.388l2.656-3.777c1.97,2.068,4.372,3.107,7.205,3.118c1.272,0,2.247-0.247,2.922-0.743
			s1.013-1.095,1.013-1.797c0-0.612-0.321-1.119-0.963-1.521c-0.643-0.401-1.439-0.718-2.392-0.949c-0.951-0.23-2-0.486-3.146-0.765
			s-2.199-0.635-3.162-1.067c-0.963-0.434-1.768-1.116-2.416-2.05c-0.646-0.933-0.971-2.071-0.971-3.415
			c0-1.941,0.783-3.571,2.35-4.891c1.565-1.318,3.649-1.978,6.25-1.978c3.62,0,6.579,1.044,8.878,3.13l-2.707,3.605
			c-1.785-1.657-3.97-2.485-6.553-2.485c-0.022,0-0.039,0-0.05,0c-0.996,0-1.779,0.2-2.35,0.601
			c-0.569,0.399-0.854,0.939-0.854,1.619c0,0.537,0.327,0.983,0.98,1.34s1.458,0.657,2.412,0.902
			c0.955,0.245,1.998,0.513,3.13,0.804s2.181,0.661,3.146,1.11c0.966,0.45,1.771,1.144,2.414,2.082
			c0.644,0.939,0.966,2.089,0.966,3.448c0,2.175-0.777,3.93-2.333,5.266c-1.555,1.336-3.811,2.003-6.765,2.003
			C625.311,207.978,622.09,206.782,619.688,204.388z"/>
		<path fill="#333333" d="M639.777,189.136v-4.25h18.112v4.25h-6.624v18.428h-4.831v-18.428H639.777z"/>
		<path fill="#333333" d="M660.96,207.563v-22.678h4.831v22.678H660.96z"/>
		<path fill="#333333" d="M670.274,207.563v-22.678h4.964l10.509,14.244v-14.244h4.831v22.678h-4.665l-10.808-14.792v14.792H670.274
			z"/>
		<path fill="#333333" d="M693.965,196.251c0-3.511,1.159-6.347,3.479-8.507c2.318-2.16,5.193-3.24,8.624-3.24
			c4.106,0,7.222,1.679,9.347,5.037l-3.984,2.191c-0.564-0.869-1.317-1.584-2.258-2.142s-1.976-0.837-3.104-0.837
			c-2.059,0-3.763,0.704-5.113,2.112s-2.025,3.197-2.025,5.367s0.673,3.962,2.017,5.375c1.346,1.414,3.053,2.12,5.122,2.12
			c0.93,0,1.835-0.171,2.714-0.515c0.881-0.343,1.569-0.752,2.067-1.229v-2.723h-5.977v-4.25h10.808v8.749
			c-2.534,2.812-5.738,4.217-9.612,4.217c-3.42,0-6.292-1.083-8.616-3.251C695.127,202.56,693.965,199.734,693.965,196.251z"/>
		<path fill="#333333" d="M728.247,207.563v-22.678h10.628c2.384,0,4.252,0.697,5.604,2.092s2.029,3.133,2.029,5.213
			c0,2.059-0.683,3.788-2.047,5.188c-1.365,1.4-3.229,2.1-5.592,2.1h-5.792v8.085H728.247z M733.078,195.228h5.097
			c0.974,0,1.779-0.279,2.415-0.838c0.637-0.559,0.955-1.292,0.955-2.2c0-0.93-0.318-1.671-0.955-2.225
			c-0.636-0.553-1.441-0.83-2.415-0.83h-5.097V195.228z"/>
		<path fill="#333333" d="M749.298,207.563v-22.678h4.831v18.428h9.612v4.25H749.298z"/>
		<path fill="#333333" d="M764.621,207.563l8.732-22.678h6.06l8.732,22.678h-5.479l-1.428-3.835h-9.712l-1.428,3.835H764.621z
			 M772.839,199.478h7.072l-3.536-9.762L772.839,199.478z"/>
		<path fill="#333333" d="M786.65,189.136v-4.25h18.112v4.25h-6.624v18.428h-4.831v-18.428H786.65z"/>
		<path fill="#333333" d="M807.835,207.563v-22.678h16.054v4.25h-11.223v4.765h10.974v4.25h-10.974v9.413H807.835z"/>
		<path fill="#333333" d="M829.508,204.685c-2.23-2.196-3.346-5.014-3.346-8.452c0-3.439,1.115-6.254,3.346-8.444
			c2.229-2.189,5.065-3.285,8.508-3.285c3.42,0,6.248,1.101,8.483,3.302s3.354,5.011,3.354,8.428s-1.118,6.229-3.354,8.436
			s-5.063,3.31-8.483,3.31C834.573,207.978,831.737,206.881,829.508,204.685z M833.01,190.866c-1.256,1.408-1.884,3.197-1.884,5.367
			s0.634,3.962,1.901,5.375c1.267,1.414,2.933,2.12,4.996,2.12c2.064,0,3.725-0.706,4.98-2.12c1.257-1.413,1.885-3.205,1.885-5.375
			s-0.628-3.959-1.885-5.367c-1.256-1.408-2.919-2.112-4.988-2.112C835.935,188.754,834.267,189.458,833.01,190.866z"/>
		<path fill="#333333" d="M853.239,207.563v-22.678h10.608c2.335,0,4.194,0.681,5.578,2.042s2.075,3.116,2.075,5.263
			c0,1.859-0.492,3.368-1.478,4.524s-2.158,1.896-3.52,2.216l5.13,8.633h-5.578l-4.449-8.052h-3.536v8.052H853.239z M858.07,195.262
			h5.097c0.974,0,1.779-0.279,2.415-0.838c0.637-0.559,0.955-1.314,0.955-2.267c0-0.907-0.318-1.638-0.955-2.191
			c-0.636-0.553-1.441-0.83-2.415-0.83h-5.097V195.262z"/>
		<path fill="#333333" d="M875.087,207.563v-22.678h6.773l5.495,14.178l5.512-14.178h6.773v22.678h-4.831v-16.353l-6.392,16.353
			h-2.108l-6.392-16.353v16.353H875.087z"/>
	</g>
</g>
</svg>
