<!-- Generator: Adobe Illustrator 17.0.0, SVG Export Plug-In  -->
<svg version="1.1"
	 xmlns="http://www.w3.org/2000/svg" xmlns:xlink="http://www.w3.org/1999/xlink" xmlns:a="http://ns.adobe.com/AdobeSVGViewerExtensions/3.0/"
	 x="0px" y="0px" width="28px" height="28px" viewBox="0 0 28 28" enable-background="new 0 0 28 28" xml:space="preserve">
<defs>
</defs>
<g>
	<g>
		<path fill="#c8353c" d="M20.654,0c-2.943,0-5.478,1.881-6.652,4.578C12.828,1.881,10.293,0,7.353,0C3.293,0,0,5.117,0,9.496
			C0,18.406,14.002,28,14.002,28S28,18.123,28,9.496C28,5.117,24.707,0,20.654,0z M20.365,17.535l-2.829,2.829l-3.535-3.536
			l-3.535,3.536l-2.829-2.829L11.173,14l-3.536-3.535l2.829-2.829l3.535,3.536l3.535-3.536l2.829,2.829L16.829,14L20.365,17.535z"/>
	</g>
</g>
</svg>
