<!-- Generator: Adobe Illustrator 17.0.0, SVG Export Plug-In  -->
<svg version="1.1"
	 xmlns="http://www.w3.org/2000/svg" xmlns:xlink="http://www.w3.org/1999/xlink" xmlns:a="http://ns.adobe.com/AdobeSVGViewerExtensions/3.0/"
	 x="0px" y="0px" width="32.001px" height="32px" viewBox="0 0 32.001 32" enable-background="new 0 0 32.001 32"
	 xml:space="preserve">
<defs>
</defs>
<path id="toilet_x5F_paper_1_" fill="#FFFFFF" d="M30.001,2v24h-8V6.121c0-1.724-1.837-3.195-4.296-4.121H30.001 M11.334,2
	c5.154,0,9.334,1.847,9.334,4.121c0,2.276-4.18,4.122-9.334,4.122C6.178,10.243,2,8.398,2,6.121C2,3.847,6.178,2,11.334,2
	 M11.502,7.166c1.457,0,2.639-0.523,2.639-1.166c0-0.644-1.182-1.164-2.639-1.164c-1.459,0-2.641,0.52-2.641,1.164
	C8.861,6.643,10.043,7.166,11.502,7.166 M21.001,8.433v17.456c0,2.211-4,4.012-9,4.111v-1h-1v0.996c-5-0.139-9-1.923-9-4.107V8.433
	c2,1.631,5,2.734,9,2.837V12h1v-0.727C16.001,11.198,19.001,10.088,21.001,8.433 M11.001,15h1v-2h-1V15 M11.001,18h1v-2h-1V18
	 M11.001,22h1v-3h-1V22 M11.001,25h1v-2h-1V25 M11.001,28h1v-2h-1V28 M30.001,0H11.334C5.702,0,0,2.102,0,6.121l0.001,19.768
	c0,3.987,5.673,5.961,10.944,6.106c0.019,0.001,0.037,0.001,0.056,0.001c0.167,0,0.827,0.004,1,0.004c0.014,0,0.026,0,0.04,0
	c5.051-0.101,8.909-1.662,10.348-4h7.612c1.104,0,2-0.896,2-2V2C32.001,0.896,31.105,0,30.001,0L30.001,0z"/>
</svg>
