<!-- Generator: Adobe Illustrator 17.0.0, SVG Export Plug-In  -->
<svg version="1.1"
	 xmlns="http://www.w3.org/2000/svg" xmlns:xlink="http://www.w3.org/1999/xlink" xmlns:a="http://ns.adobe.com/AdobeSVGViewerExtensions/3.0/"
	 x="0px" y="0px" width="32px" height="32px" viewBox="0 0 32 32" enable-background="new 0 0 32 32" xml:space="preserve">
<defs>
</defs>
<path fill="#231F20" d="M31.031,1.734C29.2,0.632,26.638,0,24,0c-3.356,0-6.237,0.784-8,2.164C14.237,0.784,11.356,0,8,0
	C5.362,0,2.8,0.632,0.969,1.734C0.367,2.096,0,2.746,0,3.448v26c0,0.721,0.388,1.386,1.016,1.741
	C1.321,31.361,1.661,31.447,2,31.447c0.357,0,0.715-0.096,1.031-0.287C4.239,30.434,6.097,30,8,30c2.761,0,4.595,0.638,5.438,1.249
	C13.805,31.706,14.368,32,15.001,32h2c0.634,0,1.199-0.295,1.565-0.755C19.413,30.636,21.245,30,24,30
	c1.903,0,3.761,0.434,4.969,1.161c0.316,0.191,0.674,0.287,1.031,0.287c0.339,0,0.679-0.086,0.984-0.259
	C31.612,30.834,32,30.168,32,29.447v-26C32,2.746,31.633,2.096,31.031,1.734z M2,3.448C3.476,2.56,5.656,2,8,2
	c3.037,0,5.644,0.703,7,1.935V21v5c-1.356-1.232-3.963-1.935-7-1.935c-2.344,0-4.524,0.56-6,1.448V3.448z M15.001,30.002
	C13.647,28.765,11.043,28,8,28c-2.344,0-4.524,0.56-6,1.448v-3C3.476,25.559,5.656,25,8,25c3.042,0,5.645,0.708,7,1.943V30h0.001
	V30.002z M30,29.447C28.524,28.559,26.344,28,24,28c-3.042,0-5.645,0.765-6.999,2H17v-3.057C18.354,25.708,20.958,25,24,25
	c2.344,0,4.524,0.56,6,1.448V29.447z M30,25.512c-1.476-0.888-3.656-1.448-6-1.448c-3.037,0-5.644,0.703-7,1.935v-5V3.935
	C18.356,2.703,20.963,2,24,2c2.344,0,4.524,0.56,6,1.448V25.512z"/>
</svg>
