<!-- Generator: Adobe Illustrator 17.0.0, SVG Export Plug-In  -->
<svg version="1.1"
	 xmlns="http://www.w3.org/2000/svg" xmlns:xlink="http://www.w3.org/1999/xlink" xmlns:a="http://ns.adobe.com/AdobeSVGViewerExtensions/3.0/"
	 x="0px" y="0px" width="32px" height="32px" viewBox="0 0 32 32" enable-background="new 0 0 32 32" xml:space="preserve">
<defs>
</defs>
<path fill="#FFFFFF" d="M26.428,21.16c0.182-0.803,0.318-1.638,0.414-2.496c1.83,0.766,2.896,1.711,3.211,2.652
	C30.191,21.735,30.582,22,31,22c0.105,0,0.211-0.017,0.316-0.052c0.523-0.174,0.807-0.74,0.633-1.265
	c-0.58-1.741-2.326-3.128-4.969-4.101C26.986,16.388,27,16.197,27,16s-0.014-0.388-0.02-0.583c2.642-0.973,4.389-2.359,4.969-4.101
	c0.174-0.524-0.109-1.091-0.633-1.265c-0.529-0.175-1.09,0.108-1.264,0.632c-0.314,0.941-1.381,1.887-3.211,2.652
	c-0.096-0.859-0.232-1.693-0.414-2.496C29.832,8.453,32,4.932,32,1c0-0.553-0.447-1-1-1s-1,0.447-1,1
	c0,3.049-1.588,5.812-4.148,7.806C24.07,3.547,20.377,0,16,0c-4.375,0-8.068,3.547-9.852,8.806C3.59,6.812,2,4.049,2,1
	c0-0.553-0.447-1-1-1S0,0.447,0,1c0,3.932,2.168,7.453,5.574,9.84c-0.184,0.803-0.32,1.637-0.416,2.496
	c-1.83-0.766-2.894-1.711-3.209-2.652c-0.174-0.523-0.738-0.807-1.266-0.632c-0.523,0.174-0.807,0.74-0.631,1.265
	c0.58,1.741,2.326,3.128,4.967,4.101C5.016,15.612,5,15.803,5,16s0.016,0.388,0.019,0.583c-2.641,0.973-4.387,2.359-4.967,4.101
	c-0.176,0.524,0.108,1.091,0.631,1.265c0.527,0.176,1.092-0.108,1.266-0.632c0.314-0.941,1.379-1.887,3.209-2.652
	c0.096,0.858,0.232,1.693,0.416,2.496C2.168,23.547,0,27.068,0,31c0,0.553,0.447,1,1,1s1-0.447,1-1c0-3.049,1.59-5.812,4.148-7.806
	C7.932,28.453,11.625,32,16,32c4.377,0,8.07-3.547,9.852-8.806C28.412,25.188,30,27.951,30,31c0,0.553,0.447,1,1,1s1-0.447,1-1
	C32,27.068,29.832,23.547,26.428,21.16z M9.303,6.674c0.373-0.648,0.783-1.24,1.227-1.771c0.072-0.087,0.147-0.173,0.221-0.256
	c0.117-0.132,0.234-0.263,0.357-0.386c0.121-0.123,0.244-0.236,0.369-0.35c0.148-0.135,0.297-0.263,0.451-0.384
	c0.145-0.114,0.289-0.226,0.438-0.328c0.096-0.066,0.193-0.128,0.289-0.19c0.166-0.103,0.334-0.198,0.504-0.286
	c0.076-0.039,0.148-0.082,0.225-0.118c0.244-0.115,0.49-0.214,0.742-0.297c0.068-0.023,0.139-0.04,0.209-0.06
	c0.201-0.06,0.404-0.107,0.609-0.145c0.078-0.014,0.156-0.029,0.236-0.04C15.449,2.026,15.723,2,16,2s0.551,0.026,0.822,0.065
	c0.078,0.011,0.156,0.026,0.234,0.04c0.205,0.038,0.408,0.086,0.609,0.145c0.07,0.02,0.141,0.038,0.211,0.061
	c0.25,0.083,0.498,0.182,0.738,0.296c0.08,0.037,0.156,0.082,0.233,0.122c0.168,0.087,0.332,0.18,0.494,0.281
	c0.1,0.062,0.199,0.126,0.297,0.193c0.144,0.1,0.285,0.208,0.426,0.319c0.164,0.129,0.322,0.266,0.48,0.41
	c0.117,0.106,0.232,0.212,0.346,0.327c0.125,0.125,0.244,0.259,0.365,0.393c0.07,0.08,0.141,0.162,0.211,0.246
	c0.447,0.533,0.859,1.129,1.234,1.78c0.014,0.023,0.027,0.046,0.041,0.069c0.131,0.233,0.25,0.483,0.371,0.728
	C21.547,10.587,18.895,12.5,16,12.5c-2.885,0-5.547-1.917-7.111-5.026C9.01,7.231,9.127,6.981,9.258,6.75
	C9.273,6.725,9.289,6.699,9.303,6.674z M14.334,29.75c-0.07-0.02-0.141-0.037-0.209-0.06c-0.252-0.083-0.498-0.182-0.742-0.297
	c-0.076-0.036-0.148-0.079-0.225-0.118c-0.17-0.088-0.338-0.183-0.504-0.286c-0.096-0.062-0.193-0.123-0.289-0.189
	c-0.148-0.103-0.293-0.214-0.438-0.328c-0.154-0.121-0.303-0.249-0.451-0.384c-0.125-0.113-0.248-0.227-0.369-0.35
	c-0.123-0.123-0.24-0.254-0.357-0.386c-0.074-0.083-0.148-0.169-0.221-0.256c-0.443-0.53-0.853-1.122-1.227-1.771
	c-0.014-0.025-0.029-0.051-0.045-0.076c-0.844-1.485-1.49-3.244-1.869-5.188c-0.022-0.106-0.035-0.218-0.055-0.325
	C7.123,18.545,7,17.296,7,16s0.123-2.545,0.334-3.736c0.019-0.107,0.033-0.219,0.055-0.325c0.228-1.178,0.566-2.275,0.977-3.298
	c1.58,2.694,3.984,4.42,6.635,4.773v16.491c-0.018-0.004-0.037-0.007-0.057-0.01C14.738,29.857,14.535,29.81,14.334,29.75z
	 M24.666,19.736c-0.018,0.108-0.033,0.219-0.053,0.325c-0.379,1.945-1.027,3.704-1.871,5.191c-0.014,0.023-0.027,0.046-0.041,0.069
	c-0.375,0.651-0.787,1.247-1.234,1.78c-0.07,0.084-0.141,0.166-0.211,0.246c-0.121,0.135-0.24,0.268-0.365,0.393
	c-0.113,0.115-0.229,0.221-0.346,0.327c-0.158,0.145-0.316,0.281-0.48,0.41c-0.141,0.111-0.281,0.22-0.426,0.319
	c-0.098,0.067-0.197,0.131-0.297,0.193c-0.162,0.102-0.326,0.194-0.494,0.281c-0.076,0.04-0.152,0.085-0.233,0.122
	c-0.24,0.114-0.488,0.213-0.738,0.296c-0.07,0.023-0.141,0.04-0.211,0.061c-0.201,0.059-0.404,0.106-0.609,0.145
	c-0.017,0.003-0.037,0.006-0.057,0.01V13.427c2.658-0.352,5.055-2.087,6.635-4.785c0.41,1.022,0.748,2.12,0.979,3.297
	c0.019,0.106,0.035,0.218,0.053,0.325C24.879,13.455,25,14.704,25,16S24.879,18.545,24.666,19.736z"/>
</svg>
