<!-- Generator: Adobe Illustrator 17.0.0, SVG Export Plug-In  -->
<svg version="1.1"
	 xmlns="http://www.w3.org/2000/svg" xmlns:xlink="http://www.w3.org/1999/xlink" xmlns:a="http://ns.adobe.com/AdobeSVGViewerExtensions/3.0/"
	 x="0px" y="0px" width="31.999px" height="32px" viewBox="0 0 31.999 32" enable-background="new 0 0 31.999 32"
	 xml:space="preserve">
<defs>
</defs>
<path id="lightbulb_1_" fill="#FFFFFF" d="M21.579,2c2.155,0,4.31,0.813,5.955,2.44c3.288,3.256,3.288,8.531,0,11.787
	c-1.1,1.087-2.432,1.802-3.835,2.162c-0.003,0.002-0.003,0.009-0.006,0.009c-0.24,0.059-4.34,1.266-4.72,1.437
	c-0.248,0.115-0.885,0.646-1.142,0.823l-1.704-1.704l6.542-3.717c0.257-0.14,0.351-0.459,0.21-0.713
	c-0.097-0.175-0.277-0.273-0.464-0.273c-0.086,0-0.174,0.021-0.255,0.065l-6.808,3.862l-1.69-1.69l3.892-6.729
	c0.14-0.253,0.048-0.573-0.21-0.713c-0.081-0.044-0.168-0.064-0.255-0.064c-0.188,0-0.369,0.099-0.466,0.274l-3.741,6.452
	l-1.706-1.705c0.166-0.241,0.69-0.86,0.8-1.093c0.172-0.374,1.393-4.432,1.45-4.669c0-0.002,0.007-0.003,0.009-0.005
	c0.364-1.39,1.088-2.706,2.188-3.795C17.267,2.813,19.422,2,21.579,2 M9.38,13.62l9,9.001L13,28H8c0,0-1.643,2-2.999,2H5
	c-1.657,0-3-1.343-3-3c0-1.356,2-3,2-3v-5.001L9.38,13.62 M21.579,0c-2.781,0-5.396,1.072-7.363,3.02
	c-1.267,1.255-2.187,2.82-2.668,4.536c-0.025,0.07-0.047,0.142-0.065,0.214l0,0c-0.081,0.3-0.908,3.04-1.239,4.046
	C9.976,11.689,9.681,11.62,9.38,11.62c-0.53,0-1.039,0.211-1.414,0.586l-5.379,5.379C2.211,17.96,2,18.469,2,18.999v4.121
	C1.145,23.977,0,25.419,0,27c0,2.757,2.243,5,5,5c1.581,0,3.024-1.146,3.88-2H13c0.53,0,1.039-0.211,1.414-0.586l5.379-5.379
	c0.67-0.67,0.766-1.697,0.286-2.469c1.034-0.333,3.767-1.141,4.105-1.229l0,0c0.06-0.016,0.118-0.033,0.175-0.054
	c1.734-0.475,3.314-1.383,4.579-2.633c1.974-1.954,3.06-4.552,3.06-7.315c0.002-2.765-1.085-5.362-3.058-7.316
	C26.973,1.072,24.358,0,21.579,0L21.579,0z"/>
</svg>
