<!-- Generator: Adobe Illustrator 17.0.0, SVG Export Plug-In  -->
<svg version="1.1"
	 xmlns="http://www.w3.org/2000/svg" xmlns:xlink="http://www.w3.org/1999/xlink" xmlns:a="http://ns.adobe.com/AdobeSVGViewerExtensions/3.0/"
	 x="0px" y="0px" width="31.998px" height="32px" viewBox="0 0 31.998 32" enable-background="new 0 0 31.998 32"
	 xml:space="preserve">
<defs>
</defs>
<path id="tag_x5F_special_1_" fill="#231F20" d="M29.053,2c0.521,0,0.945,0.426,0.945,0.946v10.276c0,0.521-0.3,1.247-0.667,1.615
	L14.443,29.725C14.259,29.908,14.017,30,13.775,30s-0.485-0.092-0.669-0.275L2.275,18.895c-0.368-0.368-0.368-0.97-0.001-1.339
	L17.162,2.669C17.529,2.302,18.256,2,18.778,2H29.053 M25.494,7.975c0.829,0,1.502-0.673,1.502-1.502s-0.673-1.502-1.502-1.502
	c-0.829,0-1.502,0.673-1.502,1.502S24.664,7.975,25.494,7.975 M14.535,13.161l-3.396-1.616l1.613,3.399l-3.543,1.26l3.543,1.261
	l-1.613,3.397l3.396-1.614l1.262,3.544l1.26-3.545l3.398,1.615l-1.615-3.397l3.545-1.261l-3.545-1.26l1.615-3.399l-3.398,1.615
	l-1.26-3.545L14.535,13.161 M29.053,0H18.778c-1.046,0-2.292,0.516-3.03,1.255L0.86,16.142c-1.147,1.153-1.145,3.021,0.001,4.167
	l10.831,10.83C12.247,31.694,12.987,32,13.775,32c0.789,0,1.528-0.307,2.084-0.863l14.887-14.885
	c0.738-0.74,1.253-1.985,1.253-3.029V2.946C31.998,1.321,30.677,0,29.053,0L29.053,0z"/>
</svg>
