<!-- Generator: Adobe Illustrator 17.0.0, SVG Export Plug-In  -->
<svg version="1.1"
	 xmlns="http://www.w3.org/2000/svg" xmlns:xlink="http://www.w3.org/1999/xlink" xmlns:a="http://ns.adobe.com/AdobeSVGViewerExtensions/3.0/"
	 x="0px" y="0px" width="32px" height="32px" viewBox="0 0 32 32" enable-background="new 0 0 32 32" xml:space="preserve">
<defs>
</defs>
<path id="cross_x5F_case_2_" fill="#FFFFFF" d="M19.267,2C21.319,2,23,3.68,23,5.734V9h3.267C28.319,9,30,10.422,30,12.475v13.791
	C30,28.32,28.319,30,26.267,30H5.733C3.679,30,2,28.32,2,26.266V12.475C2,10.422,3.679,9,5.733,9H9V5.734C9,3.68,10.681,2,12.733,2
	H19.267 M11,9h10V5.734C21,4.818,20.181,4,19.267,4h-6.533C11.817,4,11,4.818,11,5.734V9 M10,22h4v4h4v-4h4v-5h-4v-4h-4v4h-4V22
	 M19.267,0h-6.533C9.572,0,7,2.572,7,5.734V7H5.733C2.519,7,0,9.404,0,12.475v13.791C0,29.428,2.572,32,5.733,32h20.533
	C29.428,32,32,29.428,32,26.266V12.475C32,9.404,29.481,7,26.267,7H25V5.734C25,2.572,22.428,0,19.267,0L19.267,0z M13,6h6v1h-6V6
	L13,6z"/>
</svg>
