<!-- Generator: Adobe Illustrator 17.0.0, SVG Export Plug-In  -->
<svg version="1.1"
	 xmlns="http://www.w3.org/2000/svg" xmlns:xlink="http://www.w3.org/1999/xlink" xmlns:a="http://ns.adobe.com/AdobeSVGViewerExtensions/3.0/"
	 x="0px" y="0px" width="32px" height="32px" viewBox="0 0 32 32" enable-background="new 0 0 32 32" xml:space="preserve">
<defs>
</defs>
<path id="script_1_" fill="#231F20" d="M25.767,2v0.02C28.14,2.239,30,4.235,30,6.667c0,1.308-0.542,2.506-1.41,3.37H11.257
	c0.697-0.946,1.113-2.109,1.113-3.37c0-1.93-0.964-3.635-2.435-4.667H25.767 M6.667,2c2.578,0,4.667,2.089,4.667,4.667
	c0,0.102-0.01,0.201-0.016,0.302h0.004c0,0.014-0.004,0.025-0.006,0.039c-0.031,0.431-0.122,0.845-0.261,1.235
	c-0.003,0.008-0.006,0.014-0.008,0.021c-0.185,0.508-0.453,0.977-0.792,1.384L9.205,11h15.25c-0.043,0.097-0.096,0.271-0.159,0.375
	c-1.816,3.082,3.525,9.175,4.441,10.264C29.482,22.578,30,24.014,30,25.29c0,2.431-1.86,4.491-4.233,4.71H9.878
	c1.504-1.028,2.491-2.756,2.491-4.71c0-1.929-0.964-3.634-2.435-4.668h0.059c0,0-7.85-5.873-7.933-13.24C2.024,7.148,2,6.91,2,6.667
	C2,4.089,4.089,2,6.667,2 M24.455,11.073h0.005 M10.731,23c0.376,0.673,0.602,1.465,0.602,2.29c0,2.576-2.089,4.666-4.667,4.666
	C4.089,29.956,2,27.866,2,25.29c0-0.825,0.226-1.617,0.602-2.29l8.13,0.024 M25.767,0c0,0-18.353,0-19.1,0C2.991,0,0,2.991,0,6.667
	c0,0.277,0.021,0.565,0.063,0.876c0.139,6.192,4.858,11.263,7.305,13.481H2.602c-0.725,0-1.393,0.393-1.747,1.025
	C0.296,23.053,0,24.173,0,25.29c0,3.676,2.991,6.666,6.667,6.666c0.717,0,19.1,0.044,19.1,0.044c0.062,0,0.123-0.003,0.184-0.009
	C29.343,31.679,32,28.735,32,25.29c0-1.7-0.65-3.575-1.696-4.895c-0.012-0.015-0.024-0.029-0.037-0.044l-0.129-0.152
	c-5.085-6-4.129-7.791-4.119-7.809c0.067-0.113,0.133-0.233,0.192-0.354h2.379c0.529,0,1.036-0.209,1.411-0.583
	C31.29,10.172,32,8.471,32,6.667c0-3.356-2.438-6.139-5.724-6.601C26.113,0.023,25.942,0,25.767,0L25.767,0z"/>
</svg>
