<!-- Generator: Adobe Illustrator 17.0.0, SVG Export Plug-In  -->
<svg version="1.1"
	 xmlns="http://www.w3.org/2000/svg" xmlns:xlink="http://www.w3.org/1999/xlink" xmlns:a="http://ns.adobe.com/AdobeSVGViewerExtensions/3.0/"
	 x="0px" y="0px" width="32px" height="32px" viewBox="0 0 32 32" enable-background="new 0 0 32 32" xml:space="preserve">
<defs>
</defs>
<g>
	<path fill="#FFFFFF" d="M31.164,10.373l-13.968-10C16.849,0.125,16.44,0,16.032,0c-0.406,0-0.813,0.124-1.161,0.371l-14.032,10
		C0.312,10.746,0,11.353,0,12v18c0,1.104,0.895,2,2,2h28c1.104,0,2-0.896,2-2V12C32,11.354,31.688,10.749,31.164,10.373z M2,13.354
		l9.196,6.743L2,29.293V13.354z M25,15.78l-9,6.6l-9-6.6V11h18V15.78z M12.012,20.695l3.692,2.708
		C15.792,23.467,15.896,23.5,16,23.5c0.103,0,0.208-0.032,0.296-0.097l3.692-2.708L29.293,30H2.707L12.012,20.695z M20.804,20.097
		L30,13.354v15.939L20.804,20.097z M16.032,2L30,12v0.114l-4,2.933V10H6v5.046l-4-2.933V12L16.032,2z"/>
	<rect x="10" y="15" fill="#FFFFFF" width="12" height="1"/>
	<rect x="10" y="13" fill="#FFFFFF" width="12" height="1"/>
</g>
</svg>
