<!-- Generator: Adobe Illustrator 17.0.0, SVG Export Plug-In  -->
<svg version="1.1"
	 xmlns="http://www.w3.org/2000/svg" xmlns:xlink="http://www.w3.org/1999/xlink" xmlns:a="http://ns.adobe.com/AdobeSVGViewerExtensions/3.0/"
	 x="0px" y="0px" width="32px" height="32px" viewBox="0 0 32 32" enable-background="new 0 0 32 32" xml:space="preserve">
<defs>
</defs>
<g>
	<path fill="#231F20" d="M16,0C7.162,0,0,7.162,0,16s7.162,16,16,16c8.838,0,16-7.162,16-16S24.838,0,16,0z M16,30
		C8.28,30,2,23.72,2,16S8.28,2,16,2c7.72,0,14,6.28,14,14S23.72,30,16,30z"/>
	<path fill="#231F20" d="M16,5C9.926,5,5,9.926,5,16s4.926,11,11,11c6.074,0,11-4.926,11-11S22.074,5,16,5z M16,25
		c-4.963,0-9-4.037-9-9s4.037-9,9-9c4.963,0,9,4.037,9,9S20.963,25,16,25z"/>
	<path fill="#231F20" d="M16,9.5c-3.587,0-6.5,2.912-6.5,6.5c0,3.587,2.913,6.5,6.5,6.5c3.587,0,6.5-2.913,6.5-6.5
		C22.5,12.412,19.587,9.5,16,9.5z M16,20.5c-2.481,0-4.5-2.019-4.5-4.5s2.019-4.5,4.5-4.5c2.481,0,4.5,2.019,4.5,4.5
		S18.481,20.5,16,20.5z"/>
	<circle fill="#231F20" cx="16" cy="16" r="2"/>
</g>
</svg>
