<!-- Generator: Adobe Illustrator 17.0.0, SVG Export Plug-In  -->
<svg version="1.1"
	 xmlns="http://www.w3.org/2000/svg" xmlns:xlink="http://www.w3.org/1999/xlink" xmlns:a="http://ns.adobe.com/AdobeSVGViewerExtensions/3.0/"
	 x="0px" y="0px" width="32px" height="32.001px" viewBox="0 0 32 32.001" enable-background="new 0 0 32 32.001"
	 xml:space="preserve">
<defs>
</defs>
<path fill="#231F20" d="M31.461,24.724l-7.115-7.608l5.686-5.662c2.618-2.617,2.618-6.873,0.003-9.489
	C28.768,0.698,27.084,0,25.293,0c-1.792,0-3.476,0.698-4.743,1.965l-3.878,3.894C13.26,2.517,7.29,2.001,3.986,2.001
	c-0.844,0-1.379,0.036-1.401,0.038C2.514,2.044,2.443,2.053,2.373,2.065C0.942,2.317-0.034,3.426,0.001,4.76
	c0.036,1.39,1.027,2.29,1.993,2.566C2.018,7.333,2.043,7.34,2.069,7.346c1.529,0.375,2.124,2.757,2.195,3.072
	c0.288,2.086,1.246,3.819,2.776,5.114L2.721,19.87c-0.257,0.258-0.438,0.581-0.525,0.935l-2.138,8.72
	c-0.167,0.68,0.034,1.396,0.528,1.891c0.379,0.38,0.89,0.586,1.414,0.586c0.159,0,0.318-0.019,0.476-0.058l8.718-2.137
	c0.354-0.087,0.677-0.269,0.935-0.525l6.229-6.202l7.619,7.129c0.385,0.359,0.876,0.539,1.366,0.539
	c0.512,0,1.024-0.196,1.414-0.586l2.657-2.657C32.177,26.741,32.198,25.512,31.461,24.724z M21.964,3.379
	C22.883,2.46,24.088,2,25.292,2c1.205,0,2.41,0.46,3.329,1.379c1.838,1.839,1.838,4.82,0,6.658l-0.559,0.557l-6.656-6.655
	L21.964,3.379z M20.702,4.647l6.652,6.652L22.27,16.36l-4.106-4.391c0.009-1.419-0.33-2.685-0.971-3.801L20.702,4.647z M6.237,10.08
	c0,0-0.727-3.951-3.693-4.677c0,0-0.529-0.151-0.543-0.695C1.986,4.164,2.721,4.034,2.721,4.034s0.48-0.033,1.265-0.033
	c2.562,0,8.366,0.359,11.34,3.347c0.396,0.4,0.737,0.851,1.018,1.351c0.564,0.997,0.884,2.191,0.809,3.653l0.003,0.003l-3.544,3.544
	l-0.002-0.002h-0.008c-0.762,0-2.099-0.179-3.432-0.756c-0.558-0.241-1.111-0.557-1.625-0.957
	C7.411,13.303,6.486,12.002,6.237,10.08z M2,30.001l1.98-8.075l6.096,6.096L2,30.001z M11.026,27.558l-6.583-6.583l5.034-5.056
	c1.304,0.619,2.665,0.914,3.726,0.968l4.402,4.119L11.026,27.558z M27.343,28.747L14.342,16.583l3.497-3.497L30,26.09L27.343,28.747
	z"/>
</svg>
