<!-- Generator: Adobe Illustrator 17.0.0, SVG Export Plug-In  -->
<svg version="1.1"
	 xmlns="http://www.w3.org/2000/svg" xmlns:xlink="http://www.w3.org/1999/xlink" xmlns:a="http://ns.adobe.com/AdobeSVGViewerExtensions/3.0/"
	 x="0px" y="0px" width="32px" height="32.001px" viewBox="0 0 32 32.001" enable-background="new 0 0 32 32.001"
	 xml:space="preserve">
<defs>
</defs>
<path fill="#231F20" d="M25.292,2c1.205,0,2.409,0.46,3.329,1.379c1.838,1.839,1.838,4.82,0,6.658l-0.559,0.557l-6.656-6.655
	l0.557-0.56C22.883,2.46,24.088,2,25.292,2 M7.895,2.001l2.354,2.353L6.81,7.793l0.818,0.819l3.438-3.439l1.945,1.944l-2.211,2.211
	l0.819,0.819l2.21-2.211l1.945,1.944l-3.439,3.438l0.819,0.818l3.439-3.439l1.943,1.944l-2.211,2.211l0.819,0.818l2.211-2.211
	l1.944,1.944l-3.439,3.439l0.819,0.818l3.438-3.439l1.945,1.945l-2.211,2.21l0.817,0.818l2.212-2.21l1.943,1.943l-3.438,3.44
	l0.819,0.818l3.438-3.438L30,24.107l-5.894,5.894L2,7.895L7.895,2.001 M20.701,4.647l6.652,6.652l-4.383,4.364l-6.634-6.635
	L20.701,4.647 M9.045,16.354l6.602,6.603l-4.621,4.601l-6.582-6.583L9.045,16.354 M3.98,21.926l6.097,6.096L2,30.001L3.98,21.926
	 M25.292,0c-1.791,0-3.475,0.697-4.742,1.964l-4.922,4.942L9.309,0.587C8.918,0.196,8.407,0.001,7.895,0.001
	c-0.512,0-1.023,0.195-1.414,0.586L0.586,6.481C0.211,6.856,0,7.364,0,7.895c0,0.53,0.211,1.039,0.586,1.414l6.339,6.34
	l-3.898,3.915c-0.295,0.296-0.911,1.567-0.989,1.886l-1.979,8.075c-0.167,0.68,0.033,1.396,0.528,1.891
	c0.38,0.38,0.89,0.586,1.414,0.586c0.158,0,0.318-0.019,0.477-0.058l8.076-1.979c0.318-0.078,1.589-0.695,1.884-0.989l3.916-3.898
	l6.339,6.339c0.375,0.375,0.884,0.586,1.414,0.586c0.53,0,1.039-0.211,1.414-0.586l5.895-5.895c0.781-0.781,0.781-2.047,0-2.828
	l-6.32-6.32l4.939-4.918c2.617-2.617,2.617-6.873,0.003-9.489C28.767,0.697,27.083,0,25.292,0L25.292,0z"/>
</svg>
