<!-- Generator: Adobe Illustrator 17.0.0, SVG Export Plug-In  -->
<svg version="1.1"
	 xmlns="http://www.w3.org/2000/svg" xmlns:xlink="http://www.w3.org/1999/xlink" xmlns:a="http://ns.adobe.com/AdobeSVGViewerExtensions/3.0/"
	 x="0px" y="0px" width="32.003px" height="32px" viewBox="0 0 32.003 32" enable-background="new 0 0 32.003 32"
	 xml:space="preserve">
<defs>
</defs>
<g>
	<path fill="#FFFFFF" d="M12.612,21.639c-0.488,0.138-0.988,0.204-1.486,0.204c-1.822,0-3.625-0.892-4.784-2.451L5.511,20.01
		c1.356,1.825,3.473,2.869,5.619,2.869c0.591,0,1.184-0.08,1.764-0.243c3.012-0.85,4.984-3.696,4.796-6.922l-1.034,0.061
		C16.815,18.511,15.152,20.922,12.612,21.639z"/>
	<path fill="#FFFFFF" d="M31.031,8.287c-0.008-0.006-0.455-0.275-1.12-0.693c0.662-0.499,1.147-0.88,1.292-0.995
		c0.485-0.365,0.8-0.945,0.8-1.599c0-1.105-0.893-2-1.997-2H30H25.44c-1.384-1.877-3.608-3-6.069-3
		c-4.147,0-7.521,3.388-7.521,7.552c0,1.2,0.281,2.356,0.806,3.392l-1.527,0.431l-7.089-0.907c-0.085-0.011-0.17-0.017-0.254-0.017
		c-0.446,0-0.882,0.149-1.236,0.428c-0.421,0.331-0.691,0.817-0.751,1.351c-0.067,0.594-0.084,1.192-0.053,1.791
		c-0.512,0.148-0.942,0.493-1.199,0.96c-0.258,0.471-0.316,1.025-0.161,1.539c0.054,0.178,0.112,0.354,0.175,0.53
		c-0.196,0.204-0.349,0.448-0.445,0.721c-0.181,0.512-0.146,1.075,0.097,1.561C2.18,23.273,6.506,26.275,11,27.009v2.323
		c-1.734,0.49-2.947,1.48-3,2.668h10.833c-0.078-1.688-2.469-3-5.418-3c-0.143,0-0.275,0.018-0.415,0.023v-1.842
		c0.028,0.001,0.058,0.004,0.086,0.004c0.785,0,1.562-0.075,2.307-0.225c0.03-0.006,0.061-0.013,0.093-0.021
		c7.011-1.753,10.181-6.707,9.013-14.01c0.258-0.302,0.475-0.618,0.667-0.931H30c0.898,0,1.686-0.599,1.926-1.465
		C32.167,9.67,31.801,8.75,31.031,8.287z M24,10c-0.448,0.807-0.895,1.713-1.671,2.208C23.364,17.049,23,23,15,25
		c-0.629,0.126-1.27,0.185-1.914,0.185c-4.487,0-9.165-2.9-11.086-6.748l1.16-0.529C2.807,17.3,2.512,16.646,2.3,15.942l1.658-0.467
		c-0.218-0.967-0.289-1.984-0.173-3.024l7.493,0.959l3.6-1.015l1.081-0.508c-1.282-1.011-2.109-2.576-2.109-4.336
		C13.85,4.503,16.321,2,19.37,2c2.178,0,4.055,1.168,4.953,3H30c0,0-1.794,1.429-3.627,2.675C28.206,8.92,30,10,30,10H24z"/>
	<circle fill="#FFFFFF" cx="20.999" cy="6" r="1"/>
</g>
</svg>
