<!-- Generator: Adobe Illustrator 17.0.0, SVG Export Plug-In  -->
<svg version="1.1"
	 xmlns="http://www.w3.org/2000/svg" xmlns:xlink="http://www.w3.org/1999/xlink" xmlns:a="http://ns.adobe.com/AdobeSVGViewerExtensions/3.0/"
	 x="0px" y="0px" width="32px" height="32px" viewBox="0 0 32 32" enable-background="new 0 0 32 32" xml:space="preserve">
<defs>
</defs>
<path id="speech_x5F_bubbles_1_" fill="#FFFFFF" d="M15,2c3.313,0,6,2.687,6,6v2c0,3.314-2.687,6-6,6h-1.997L8,21v-5
	c-3.313,0-6-2.686-6-6V8c0-3.313,2.687-6,6-6H15 M24,11c3.313,0,6,2.686,6,6v2c0,3.313-2.687,6-6,6v5l-5.003-5H17
	c-2.756,0-5.073-1.861-5.776-4.395L13.831,18H15c4.072,0,7.436-3.061,7.931-7H24 M15,0H8C3.589,0,0,3.589,0,8v2
	c0,3.721,2.553,6.856,6,7.747V21c0,0.809,0.487,1.538,1.234,1.848C7.482,22.95,7.742,23,8,23c0.521,0,1.032-0.203,1.414-0.585
	l0.246-0.246C10.909,25.06,13.79,27,17,27h1.169l4.417,4.415C22.969,31.797,23.48,32,24,32c0.258,0,0.518-0.05,0.765-0.152
	C25.513,31.538,26,30.809,26,30v-3.253c3.447-0.891,6-4.026,6-7.747v-2c0-4.411-3.589-8-8-8h-1V8C23,3.589,19.411,0,15,0L15,0z"/>
</svg>
