<!-- Generator: Adobe Illustrator 17.0.0, SVG Export Plug-In  -->
<svg version="1.1"
	 xmlns="http://www.w3.org/2000/svg" xmlns:xlink="http://www.w3.org/1999/xlink" xmlns:a="http://ns.adobe.com/AdobeSVGViewerExtensions/3.0/"
	 x="0px" y="0px" width="32px" height="32px" viewBox="0 0 32 32" enable-background="new 0 0 32 32" xml:space="preserve">
<defs>
</defs>
<g>
	<path fill="#FFFFFF" d="M30,11H13v-0.914c0-1.683,1.221-3.001,2.778-3.001c1.088,0,1.801,0.713,2.129,1.138
		C18.286,8.713,18.871,9,19.49,9h3.616c0.658,0,1.274-0.324,1.648-0.867c0.373-0.542,0.455-1.233,0.219-1.849
		C23.511,2.467,19.922,0,15.831,0C10.318,0,6,4.431,6,10.086V11H2c-1.105,0-2,0.896-2,2v17c0,1.104,0.895,2,2,2h28
		c1.104,0,2-0.896,2-2V13C32,11.896,31.104,11,30,11z M15.831,2c3.402,0,6.142,2.042,7.275,5H19.49
		c-0.856-1.108-2.158-1.915-3.712-1.915C13.04,5.085,11,7.353,11,10.086V12H8v-1.914C8,5.637,11.368,2,15.831,2z M30,30H2V13h3h3h3
		h1h18V30z"/>
	<path fill="#FFFFFF" d="M14.267,22.142L13.229,27h4.908l-1.037-4.858c0.846-0.49,1.416-1.477,1.416-2.519
		c0-1.562-1.27-2.912-2.834-2.912c-1.562,0-2.832,1.32-2.832,2.883C12.851,20.635,13.425,21.651,14.267,22.142z"/>
</g>
</svg>
