<!-- Generator: Adobe Illustrator 17.0.0, SVG Export Plug-In  -->
<svg version="1.1"
	 xmlns="http://www.w3.org/2000/svg" xmlns:xlink="http://www.w3.org/1999/xlink" xmlns:a="http://ns.adobe.com/AdobeSVGViewerExtensions/3.0/"
	 x="0px" y="0px" width="32px" height="32px" viewBox="0 0 32 32" enable-background="new 0 0 32 32" xml:space="preserve">
<defs>
</defs>
<g>
	<path fill="#231F20" d="M17.519,8.557c-3.559,2.231-6.932,4.86-10.999,5.967c0.123,0.27,0.245,0.538,0.367,0.808
		c4.066-1.108,7.441-3.737,10.999-5.968C17.763,9.095,17.641,8.825,17.519,8.557z"/>
	<path fill="#231F20" d="M31.824,12.959L31,11.122l-4.462-9.941C26.213,0.456,25.495,0,24.715,0c-0.072,0-0.146,0.004-0.219,0.012
		c-4.652,0.51-8.293,2.907-11.814,5.224C9.412,7.388,6.324,9.42,2.631,9.825c-0.636,0.07-1.2,0.439-1.518,0.995
		c-0.318,0.555-0.352,1.229-0.09,1.812l1.562,3.481c-0.276,0.052-0.542,0.092-0.804,0.12c-0.636,0.07-1.2,0.439-1.518,0.995
		c-0.318,0.555-0.351,1.229-0.09,1.812l2.088,4.652l3.197,7.126C5.785,31.543,6.504,32,7.284,32c0.072,0,0.145-0.004,0.219-0.012
		c4.652-0.511,8.293-2.907,11.815-5.225c3.269-2.152,6.358-4.184,10.052-4.589c0.637-0.07,1.2-0.44,1.519-0.995
		c0.317-0.555,0.351-1.229,0.088-1.812l-1.161-2.588l-0.403-0.897c0.267-0.047,0.535-0.085,0.807-0.115
		c0.637-0.07,1.2-0.439,1.518-0.995C32.054,14.216,32.087,13.542,31.824,12.959z M7.285,30C5.525,26.074,3.762,22.148,2,18.221
		c0.835-0.091,1.631-0.27,2.408-0.489l2.813,6.269l0.298,0.664l0.724-0.079c4.412-0.484,7.951-2.813,11.373-5.066
		c2.451-1.613,4.808-3.153,7.421-4.044c0.705,1.57,1.409,3.141,2.114,4.71C20.806,21.102,15.631,29.084,7.285,30z M8.134,23.592
		c-1.761-3.926-3.523-7.852-5.285-11.779C11.195,10.898,16.368,2.915,24.714,2C26.477,5.926,28.239,9.852,30,13.778
		C21.655,14.694,16.48,22.676,8.134,23.592z"/>
	<path fill="#231F20" d="M23.371,8.111c-0.134,0.003-0.256,0.004-0.368,0.004c-0.677,0-0.991-0.062-1.111-0.326
		c-0.116-0.255-0.043-0.608,0.565-0.859c0.417-0.169,0.784-0.208,1.073-0.208c0.18,0,0.329,0.015,0.443,0.022
		c-0.064-0.377-0.127-0.753-0.192-1.127c-0.12-0.016-0.251-0.026-0.394-0.026c-0.317,0-0.692,0.05-1.139,0.201
		c-0.122-0.27-0.245-0.54-0.368-0.81c-0.308,0.12-0.614,0.249-0.915,0.384c0.132,0.291,0.266,0.583,0.399,0.875
		c-0.899,0.64-1.156,1.587-0.789,2.394c0.325,0.715,0.935,0.921,1.745,0.921c0.207,0,0.427-0.013,0.659-0.035
		c0.147-0.013,0.279-0.02,0.399-0.02c0.534,0,0.829,0.129,0.959,0.413c0.168,0.369-0.111,0.708-0.64,0.938
		c-0.559,0.243-1.133,0.324-1.591,0.324c-0.037,0-0.073,0-0.109-0.002c0.074,0.406,0.148,0.814,0.222,1.22
		c0.028,0.001,0.058,0.002,0.088,0.002c0.431,0,1.046-0.135,1.635-0.368c0.133,0.292,0.267,0.583,0.399,0.874
		c0.301-0.135,0.606-0.265,0.913-0.385c-0.142-0.313-0.284-0.627-0.427-0.939c1.001-0.608,1.316-1.458,0.941-2.283
		c-0.358-0.784-1.025-1.188-2.217-1.188C23.493,8.108,23.433,8.109,23.371,8.111z"/>
	<path fill="#231F20" d="M8.626,19.153c0.123,0.269,0.245,0.538,0.368,0.807c2.188-0.597,4.176-1.633,6.1-2.811
		c-0.123-0.269-0.245-0.538-0.368-0.808C12.803,17.519,10.815,18.556,8.626,19.153z"/>
	<path fill="#231F20" d="M7.573,16.838c0.122,0.27,0.245,0.539,0.367,0.809c4.067-1.109,7.441-3.738,10.999-5.969
		c-0.122-0.269-0.246-0.538-0.368-0.808C15.015,13.1,11.64,15.729,7.573,16.838z"/>
</g>
</svg>
