<!-- Generator: Adobe Illustrator 17.0.0, SVG Export Plug-In  -->
<svg version="1.1"
	 xmlns="http://www.w3.org/2000/svg" xmlns:xlink="http://www.w3.org/1999/xlink" xmlns:a="http://ns.adobe.com/AdobeSVGViewerExtensions/3.0/"
	 x="0px" y="0px" width="32px" height="32px" viewBox="0 0 32 32" enable-background="new 0 0 32 32" xml:space="preserve">
<defs>
</defs>
<g>
	<path fill="#231F20" d="M12,16h7.999c3,0,4.001-1,4.001-3v-2c0-2-1-3-4-3h-7.999C9.001,8,8,9,8,11v2C8,15,9,16,12,16z"/>
	<path fill="#231F20" d="M12,6h8c0.552,0,1-0.448,1-1s-0.448-1-1-1h-8c-0.552,0-1,0.448-1,1S11.448,6,12,6z"/>
	<circle fill="#231F20" cx="22.5" cy="19.5" r="1.5"/>
	<path fill="#231F20" d="M31.28,27.463l-3.911-3.259C28.758,22.731,29,20.808,29,19V8c0-5.308-3.027-7.999-8.999-8h-8
		C6.028,0,3,2.691,3,8v11c0,1.808,0.242,3.731,1.631,5.204L0.72,27.463C0.264,27.844,0,28.406,0,29v1c0,1.104,0.895,2,2,2h28
		c1.104,0,2-0.896,2-2v-1C32,28.406,31.736,27.844,31.28,27.463z M5,8c0-4,2.001-6,7.001-6h8C25.001,2,27,4.001,27,8v11
		c0,2.806-0.686,4.163-3,5H8c-2.315-0.838-3-2.193-3-5V8z M30,30H2v-1l4.8-4h18.4l4.8,4V30z"/>
	<polygon fill="#231F20" points="7.162,26 5.962,27 26.038,27 24.838,26 	"/>
	<polygon fill="#231F20" points="3.561,29 28.438,29 27.238,28 4.762,28 	"/>
	<circle fill="#231F20" cx="9.5" cy="19.5" r="1.5"/>
</g>
</svg>
