<!-- Generator: Adobe Illustrator 17.0.0, SVG Export Plug-In  -->
<svg version="1.1"
	 xmlns="http://www.w3.org/2000/svg" xmlns:xlink="http://www.w3.org/1999/xlink" xmlns:a="http://ns.adobe.com/AdobeSVGViewerExtensions/3.0/"
	 x="0px" y="0px" width="32px" height="32px" viewBox="0 0 32 32" enable-background="new 0 0 32 32" xml:space="preserve">
<defs>
</defs>
<path id="rocket_1_" fill="#231F20" d="M16,2c2.424,0.114,9.24,4.484,7.803,13.021L22,26H10.042L8.197,15.021
	C6.76,6.484,13.576,2.114,16,2 M15.999,12c1.382,0,2.501-1.12,2.501-2.499c0-1.381-1.119-2.501-2.501-2.501
	c-0.344,0-0.674,0.069-0.972,0.197C14.129,7.577,13.5,8.464,13.5,9.501C13.5,10.881,14.619,12,15.999,12 M15.999,20
	c1.382,0,2.501-1.12,2.501-2.5c0-1.381-1.119-2.5-2.501-2.5c-0.344,0-0.674,0.069-0.972,0.197c-0.898,0.379-1.527,1.266-1.527,2.303
	C13.5,18.881,14.619,20,15.999,20 M7.556,17.237l1.468,8.739L5,30c0,0-3-3-3-7C2,20.493,6.178,17.994,7.556,17.237 M24.451,17.241
	C25.836,18.002,30,20.498,30,23c0,4-3,7-3,7l-3.989-3.989L24.451,17.241 M19,27l2,3H11l2-3H19 M16,0
	c-0.031,0-0.063,0.001-0.094,0.002c-1.76,0.083-4.688,1.457-6.963,4.277c-1.73,2.146-3.606,5.808-2.719,11.074l0.052,0.308
	C3.34,17.321,0,19.893,0,23c0,4.773,3.439,8.268,3.586,8.414C3.961,31.789,4.47,32,5,32l0,0c0.53,0,1.039-0.211,1.414-0.586
	l3.424-3.424c0.031,0.003,0.062,0.005,0.094,0.007l-0.596,0.893c-0.409,0.614-0.447,1.403-0.1,2.053C9.585,31.594,10.263,32,11,32
	h10c0.737,0,1.415-0.406,1.764-1.056c0.348-0.65,0.309-1.439-0.1-2.053l-0.595-0.892c0.032-0.001,0.063-0.003,0.095-0.006
	l3.422,3.421C25.977,31.805,26.488,32,27,32c0.512,0,1.023-0.195,1.414-0.586C28.56,31.268,32,27.773,32,23
	c0-3.106-3.341-5.679-6.275-7.339l0.052-0.316c0.886-5.258-0.99-8.92-2.72-11.066c-2.274-2.82-5.203-4.194-6.963-4.277
	C16.062,0.001,16.031,0,16,0L16,0z"/>
</svg>
