<!-- Generator: Adobe Illustrator 17.0.0, SVG Export Plug-In  -->
<svg version="1.1"
	 xmlns="http://www.w3.org/2000/svg" xmlns:xlink="http://www.w3.org/1999/xlink" xmlns:a="http://ns.adobe.com/AdobeSVGViewerExtensions/3.0/"
	 x="0px" y="0px" width="33.003px" height="32px" viewBox="0 0 33.003 32" enable-background="new 0 0 33.003 32"
	 xml:space="preserve">
<defs>
</defs>
<path fill="#231F20" d="M33.003,5c0-1.105-0.894-2-1.998-2H31H9.505l-0.4-1.513C8.871,0.61,8.078,0,7.171,0H2C0.895,0,0,0.896,0,2v2
	c0,1.104,0.895,2,2,2h2.03l4.647,17.513c0.057,0.21,0.144,0.405,0.258,0.58C8.347,24.912,8,25.917,8,27c0,2.757,2.243,5,5,5
	c2.757,0,5-2.243,5-5c0-0.71-0.149-1.387-0.418-2h4.836C22.149,25.613,22,26.29,22,27c0,2.757,2.243,5,5,5c2.757,0,5-2.243,5-5
	c0-0.912-0.245-1.767-0.673-2.503C31.74,24.13,32,23.595,32,23v-2c0-0.747-0.409-1.398-1.017-1.742l1.977-13.851
	C32.988,5.276,33.003,5.14,33.003,5z M25,15h4.615L29,19h-4V15z M18,5h6v4h-6V5z M18,10h6v4h-6V10z M18,15h6v4h-6V15z M17,5v4
	h-5.999l-0.912-4H17z M12.186,14l-0.91-4H17v4H12.186z M17,15v4h-3.626l-0.912-4H17z M13,30c-1.657,0-3-1.343-3-3s1.343-3,3-3
	c1.657,0,3,1.343,3,3S14.657,30,13,30z M27,30c-1.657,0-3-1.343-3-3s1.343-3,3-3c1.657,0,3,1.343,3,3S28.657,30,27,30z M30,23H10.61
	L5.569,4H2V2h5.171l5.039,19H30V23z M29.769,14H25v-4h5.23L29.769,14z M30.385,9H25V5h6L30.385,9z"/>
</svg>
