<!-- Generator: Adobe Illustrator 17.0.0, SVG Export Plug-In  -->
<svg version="1.1"
	 xmlns="http://www.w3.org/2000/svg" xmlns:xlink="http://www.w3.org/1999/xlink" xmlns:a="http://ns.adobe.com/AdobeSVGViewerExtensions/3.0/"
	 x="0px" y="0px" width="303.44px" height="224.447px" viewBox="0 0 303.44 224.447" enable-background="new 0 0 303.44 224.447"
	 xml:space="preserve">
<defs>
</defs>
<path fill="none" stroke="#FFFFFF" stroke-width="15" stroke-miterlimit="10" d="M282.819,36.917
	c-9.249,4.102-19.182,6.87-29.61,8.119c10.647-6.38,18.819-16.483,22.67-28.519c-9.964,5.905-20.995,10.196-32.736,12.509
	c-9.404-10.02-22.804-16.277-37.627-16.277c-28.469,0-51.55,23.079-51.55,51.547c0,4.041,0.453,7.975,1.334,11.746
	c-42.839-2.147-80.835-22.67-106.252-53.86c-4.438,7.615-6.983,16.469-6.983,25.916c0,17.883,9.1,33.659,22.932,42.906
	c-8.444-0.267-16.397-2.582-23.348-6.444c-0.005,0.213-0.005,0.427-0.005,0.645c0,24.977,17.774,45.813,41.351,50.547
	c-4.321,1.179-8.876,1.811-13.581,1.811c-3.318,0-6.545-0.323-9.698-0.926c6.561,20.478,25.604,35.385,48.157,35.798
	c-17.645,13.829-39.868,22.07-64.021,22.07c-4.161,0-8.262-0.245-12.295-0.728c22.809,14.632,49.902,23.169,79.021,23.169
	c94.816,0,146.67-78.554,146.67-146.678c0-2.23-0.048-4.454-0.149-6.67C267.168,56.336,275.905,47.257,282.819,36.917z"/>
</svg>
